<svg width="686" height="315" viewBox="0 0 686 315" fill="none" xmlns="http://www.w3.org/2000/svg">
<path d="M23.5 58C23.5 41.4315 36.9315 28 53.5 28H443.5C460.069 28 473.5 41.4315 473.5 58V113H23.5V58Z" fill="#2E453D"/>
<rect x="23.5" y="113" width="450" height="86" fill="#ADB79C"/>
<path d="M23.5 199H473.5V255C473.5 271.569 460.069 285 443.5 285H53.5C36.9315 285 23.5 271.569 23.5 255V199Z" fill="#EAE4D8"/>
<rect x="0.75" y="1.25" width="684.5" height="312.5" rx="30.75" stroke="#1F4E58" stroke-width="1.5"/>
<path d="M517.636 82L521.455 58.7273H523.727L519.909 82H517.636ZM507.045 75.5455L507.409 73.2727H524.773L524.409 75.5455H507.045ZM509.455 82L513.273 58.7273H515.545L511.727 82H509.455ZM508.409 67.4545L508.773 65.1818H526.136L525.773 67.4545H508.409ZM536.688 82.3182C534.975 82.3182 533.517 81.8523 532.312 80.9205C531.108 79.9811 530.188 78.6212 529.551 76.8409C528.915 75.053 528.597 72.8939 528.597 70.3636C528.597 67.8485 528.915 65.7008 529.551 63.9205C530.195 62.1326 531.119 60.7689 532.324 59.8295C533.536 58.8826 534.991 58.4091 536.688 58.4091C538.384 58.4091 539.835 58.8826 541.04 59.8295C542.252 60.7689 543.176 62.1326 543.812 63.9205C544.456 65.7008 544.778 67.8485 544.778 70.3636C544.778 72.8939 544.46 75.053 543.824 76.8409C543.188 78.6212 542.267 79.9811 541.062 80.9205C539.858 81.8523 538.4 82.3182 536.688 82.3182ZM536.688 79.8182C538.384 79.8182 539.703 79 540.642 77.3636C541.581 75.7273 542.051 73.3939 542.051 70.3636C542.051 68.3485 541.835 66.6326 541.403 65.2159C540.979 63.7992 540.366 62.7197 539.562 61.9773C538.767 61.2348 537.809 60.8636 536.688 60.8636C535.006 60.8636 533.691 61.6932 532.744 63.3523C531.797 65.0038 531.324 67.3409 531.324 70.3636C531.324 72.3788 531.536 74.0909 531.96 75.5C532.384 76.9091 532.994 77.9811 533.79 78.7159C534.593 79.4508 535.559 79.8182 536.688 79.8182ZM550.46 82H547.506L556.051 58.7273H558.96L567.506 82H564.551L557.597 62.4091H557.415L550.46 82ZM551.551 72.9091H563.46V75.4091H551.551V72.9091ZM578.312 82.3182C576.6 82.3182 575.142 81.8523 573.938 80.9205C572.733 79.9811 571.813 78.6212 571.176 76.8409C570.54 75.053 570.222 72.8939 570.222 70.3636C570.222 67.8485 570.54 65.7008 571.176 63.9205C571.82 62.1326 572.744 60.7689 573.949 59.8295C575.161 58.8826 576.616 58.4091 578.312 58.4091C580.009 58.4091 581.46 58.8826 582.665 59.8295C583.877 60.7689 584.801 62.1326 585.438 63.9205C586.081 65.7008 586.403 67.8485 586.403 70.3636C586.403 72.8939 586.085 75.053 585.449 76.8409C584.812 78.6212 583.892 79.9811 582.688 80.9205C581.483 81.8523 580.025 82.3182 578.312 82.3182ZM578.312 79.8182C580.009 79.8182 581.328 79 582.267 77.3636C583.206 75.7273 583.676 73.3939 583.676 70.3636C583.676 68.3485 583.46 66.6326 583.028 65.2159C582.604 63.7992 581.991 62.7197 581.188 61.9773C580.392 61.2348 579.434 60.8636 578.312 60.8636C576.631 60.8636 575.316 61.6932 574.369 63.3523C573.422 65.0038 572.949 67.3409 572.949 70.3636C572.949 72.3788 573.161 74.0909 573.585 75.5C574.009 76.9091 574.619 77.9811 575.415 78.7159C576.218 79.4508 577.184 79.8182 578.312 79.8182ZM598.312 82H591.131V58.7273H598.631C600.888 58.7273 602.82 59.1932 604.426 60.125C606.032 61.0492 607.263 62.3788 608.119 64.1136C608.975 65.8409 609.403 67.9091 609.403 70.3182C609.403 72.7424 608.972 74.8295 608.108 76.5795C607.244 78.322 605.987 79.6629 604.335 80.6023C602.684 81.5341 600.676 82 598.312 82ZM593.949 79.5H598.131C600.055 79.5 601.65 79.1288 602.915 78.3864C604.18 77.6439 605.123 76.5871 605.744 75.2159C606.366 73.8447 606.676 72.2121 606.676 70.3182C606.676 68.4394 606.369 66.822 605.756 65.4659C605.142 64.1023 604.225 63.0568 603.006 62.3295C601.786 61.5947 600.267 61.2273 598.449 61.2273H593.949V79.5ZM621.312 82.3182C619.6 82.3182 618.142 81.8523 616.938 80.9205C615.733 79.9811 614.813 78.6212 614.176 76.8409C613.54 75.053 613.222 72.8939 613.222 70.3636C613.222 67.8485 613.54 65.7008 614.176 63.9205C614.82 62.1326 615.744 60.7689 616.949 59.8295C618.161 58.8826 619.616 58.4091 621.312 58.4091C623.009 58.4091 624.46 58.8826 625.665 59.8295C626.877 60.7689 627.801 62.1326 628.438 63.9205C629.081 65.7008 629.403 67.8485 629.403 70.3636C629.403 72.8939 629.085 75.053 628.449 76.8409C627.812 78.6212 626.892 79.9811 625.688 80.9205C624.483 81.8523 623.025 82.3182 621.312 82.3182ZM621.312 79.8182C623.009 79.8182 624.328 79 625.267 77.3636C626.206 75.7273 626.676 73.3939 626.676 70.3636C626.676 68.3485 626.46 66.6326 626.028 65.2159C625.604 63.7992 624.991 62.7197 624.188 61.9773C623.392 61.2348 622.434 60.8636 621.312 60.8636C619.631 60.8636 618.316 61.6932 617.369 63.3523C616.422 65.0038 615.949 67.3409 615.949 70.3636C615.949 72.3788 616.161 74.0909 616.585 75.5C617.009 76.9091 617.619 77.9811 618.415 78.7159C619.218 79.4508 620.184 79.8182 621.312 79.8182ZM652.858 66H650.04C649.873 65.1894 649.581 64.4773 649.165 63.8636C648.756 63.25 648.256 62.7348 647.665 62.3182C647.081 61.8939 646.434 61.5758 645.722 61.3636C645.009 61.1515 644.267 61.0455 643.494 61.0455C642.085 61.0455 640.809 61.4015 639.665 62.1136C638.528 62.8258 637.623 63.875 636.949 65.2614C636.282 66.6477 635.949 68.3485 635.949 70.3636C635.949 72.3788 636.282 74.0795 636.949 75.4659C637.623 76.8523 638.528 77.9015 639.665 78.6136C640.809 79.3258 642.085 79.6818 643.494 79.6818C644.267 79.6818 645.009 79.5758 645.722 79.3636C646.434 79.1515 647.081 78.8371 647.665 78.4205C648.256 77.9962 648.756 77.4773 649.165 76.8636C649.581 76.2424 649.873 75.5303 650.04 74.7273H652.858C652.646 75.9167 652.259 76.9811 651.699 77.9205C651.138 78.8598 650.441 79.6591 649.608 80.3182C648.775 80.9697 647.839 81.4659 646.801 81.8068C645.771 82.1477 644.669 82.3182 643.494 82.3182C641.509 82.3182 639.744 81.8333 638.199 80.8636C636.653 79.8939 635.438 78.5152 634.551 76.7273C633.665 74.9394 633.222 72.8182 633.222 70.3636C633.222 67.9091 633.665 65.7879 634.551 64C635.438 62.2121 636.653 60.8333 638.199 59.8636C639.744 58.8939 641.509 58.4091 643.494 58.4091C644.669 58.4091 645.771 58.5795 646.801 58.9205C647.839 59.2614 648.775 59.7614 649.608 60.4205C650.441 61.072 651.138 61.8674 651.699 62.8068C652.259 63.7386 652.646 64.803 652.858 66Z" fill="#151515"/>
<path d="M517.636 164L521.455 140.727H523.727L519.909 164H517.636ZM507.045 157.545L507.409 155.273H524.773L524.409 157.545H507.045ZM509.455 164L513.273 140.727H515.545L511.727 164H509.455ZM508.409 149.455L508.773 147.182H526.136L525.773 149.455H508.409ZM530.46 164H527.506L536.051 140.727H538.96L547.506 164H544.551L537.597 144.409H537.415L530.46 164ZM531.551 154.909H543.46V157.409H531.551V154.909ZM558.312 164H551.131V140.727H558.631C560.888 140.727 562.82 141.193 564.426 142.125C566.032 143.049 567.263 144.379 568.119 146.114C568.975 147.841 569.403 149.909 569.403 152.318C569.403 154.742 568.972 156.83 568.108 158.58C567.244 160.322 565.987 161.663 564.335 162.602C562.684 163.534 560.676 164 558.312 164ZM553.949 161.5H558.131C560.055 161.5 561.65 161.129 562.915 160.386C564.18 159.644 565.123 158.587 565.744 157.216C566.366 155.845 566.676 154.212 566.676 152.318C566.676 150.439 566.369 148.822 565.756 147.466C565.142 146.102 564.225 145.057 563.006 144.33C561.786 143.595 560.267 143.227 558.449 143.227H553.949V161.5ZM574.131 164V140.727H582.267C583.888 140.727 585.225 141.008 586.278 141.568C587.331 142.121 588.116 142.867 588.631 143.807C589.146 144.739 589.403 145.773 589.403 146.909C589.403 147.909 589.225 148.735 588.869 149.386C588.521 150.038 588.059 150.553 587.483 150.932C586.915 151.311 586.297 151.591 585.631 151.773V152C586.343 152.045 587.059 152.295 587.778 152.75C588.498 153.205 589.1 153.856 589.585 154.705C590.07 155.553 590.312 156.591 590.312 157.818C590.312 158.985 590.047 160.034 589.517 160.966C588.987 161.898 588.15 162.636 587.006 163.182C585.862 163.727 584.373 164 582.54 164H574.131ZM576.949 161.5H582.54C584.381 161.5 585.688 161.144 586.46 160.432C587.241 159.712 587.631 158.841 587.631 157.818C587.631 157.03 587.43 156.303 587.028 155.636C586.627 154.962 586.055 154.424 585.312 154.023C584.57 153.614 583.691 153.409 582.676 153.409H576.949V161.5ZM576.949 150.955H582.176C583.025 150.955 583.79 150.788 584.472 150.455C585.161 150.121 585.706 149.652 586.108 149.045C586.517 148.439 586.722 147.727 586.722 146.909C586.722 145.886 586.366 145.019 585.653 144.307C584.941 143.587 583.813 143.227 582.267 143.227H576.949V150.955ZM595.261 164L605.67 143.409V143.227H593.67V140.727H608.58V143.364L598.216 164H595.261ZM619.912 140.409C620.866 140.417 621.821 140.598 622.776 140.955C623.73 141.311 624.601 141.902 625.389 142.727C626.177 143.545 626.81 144.663 627.287 146.08C627.764 147.496 628.003 149.273 628.003 151.409C628.003 153.477 627.806 155.314 627.412 156.92C627.026 158.519 626.465 159.867 625.73 160.966C625.003 162.064 624.116 162.898 623.071 163.466C622.033 164.034 620.859 164.318 619.548 164.318C618.245 164.318 617.082 164.061 616.06 163.545C615.045 163.023 614.211 162.299 613.56 161.375C612.916 160.443 612.503 159.364 612.321 158.136H615.094C615.344 159.205 615.84 160.087 616.582 160.784C617.332 161.473 618.321 161.818 619.548 161.818C621.344 161.818 622.76 161.034 623.798 159.466C624.844 157.898 625.366 155.682 625.366 152.818H625.185C624.76 153.455 624.257 154.004 623.673 154.466C623.09 154.928 622.442 155.284 621.73 155.534C621.018 155.784 620.26 155.909 619.457 155.909C618.124 155.909 616.901 155.58 615.787 154.92C614.681 154.254 613.795 153.341 613.128 152.182C612.469 151.015 612.139 149.682 612.139 148.182C612.139 146.758 612.457 145.455 613.094 144.273C613.738 143.083 614.639 142.136 615.798 141.432C616.965 140.727 618.336 140.386 619.912 140.409ZM619.912 142.909C618.957 142.909 618.098 143.148 617.332 143.625C616.575 144.095 615.973 144.731 615.526 145.534C615.086 146.33 614.866 147.212 614.866 148.182C614.866 149.152 615.079 150.034 615.503 150.83C615.935 151.617 616.522 152.246 617.264 152.716C618.014 153.178 618.866 153.409 619.821 153.409C620.541 153.409 621.211 153.269 621.832 152.989C622.454 152.701 622.995 152.311 623.457 151.818C623.927 151.318 624.295 150.754 624.56 150.125C624.825 149.489 624.957 148.826 624.957 148.136C624.957 147.227 624.738 146.375 624.298 145.58C623.866 144.784 623.268 144.14 622.503 143.648C621.745 143.155 620.882 142.909 619.912 142.909ZM651.608 148H648.79C648.623 147.189 648.331 146.477 647.915 145.864C647.506 145.25 647.006 144.735 646.415 144.318C645.831 143.894 645.184 143.576 644.472 143.364C643.759 143.152 643.017 143.045 642.244 143.045C640.835 143.045 639.559 143.402 638.415 144.114C637.278 144.826 636.373 145.875 635.699 147.261C635.032 148.648 634.699 150.348 634.699 152.364C634.699 154.379 635.032 156.08 635.699 157.466C636.373 158.852 637.278 159.902 638.415 160.614C639.559 161.326 640.835 161.682 642.244 161.682C643.017 161.682 643.759 161.576 644.472 161.364C645.184 161.152 645.831 160.837 646.415 160.42C647.006 159.996 647.506 159.477 647.915 158.864C648.331 158.242 648.623 157.53 648.79 156.727H651.608C651.396 157.917 651.009 158.981 650.449 159.92C649.888 160.86 649.191 161.659 648.358 162.318C647.525 162.97 646.589 163.466 645.551 163.807C644.521 164.148 643.419 164.318 642.244 164.318C640.259 164.318 638.494 163.833 636.949 162.864C635.403 161.894 634.188 160.515 633.301 158.727C632.415 156.939 631.972 154.818 631.972 152.364C631.972 149.909 632.415 147.788 633.301 146C634.188 144.212 635.403 142.833 636.949 141.864C638.494 140.894 640.259 140.409 642.244 140.409C643.419 140.409 644.521 140.58 645.551 140.92C646.589 141.261 647.525 141.761 648.358 142.42C649.191 143.072 649.888 143.867 650.449 144.807C651.009 145.739 651.396 146.803 651.608 148Z" fill="#151515"/>
<path d="M517.636 251L521.455 227.727H523.727L519.909 251H517.636ZM507.045 244.545L507.409 242.273H524.773L524.409 244.545H507.045ZM509.455 251L513.273 227.727H515.545L511.727 251H509.455ZM508.409 236.455L508.773 234.182H526.136L525.773 236.455H508.409ZM529.506 251V227.727H543.551V230.227H532.324V238.091H542.824V240.591H532.324V248.5H543.733V251H529.506ZM549.585 251H546.631L555.176 227.727H558.085L566.631 251H563.676L556.722 231.409H556.54L549.585 251ZM550.676 241.909H562.585V244.409H550.676V241.909ZM570.256 251V227.727H584.301V230.227H573.074V238.091H583.574V240.591H573.074V248.5H584.483V251H570.256ZM588.426 246.227V243.909L598.653 227.727H600.335V231.318H599.199L591.472 243.545V243.727H605.244V246.227H588.426ZM599.381 251V245.523V244.443V227.727H602.062V251H599.381ZM617.094 251H609.912V227.727H617.412C619.67 227.727 621.601 228.193 623.207 229.125C624.813 230.049 626.045 231.379 626.901 233.114C627.757 234.841 628.185 236.909 628.185 239.318C628.185 241.742 627.753 243.83 626.889 245.58C626.026 247.322 624.768 248.663 623.116 249.602C621.465 250.534 619.457 251 617.094 251ZM612.73 248.5H616.912C618.836 248.5 620.431 248.129 621.696 247.386C622.961 246.644 623.904 245.587 624.526 244.216C625.147 242.845 625.457 241.212 625.457 239.318C625.457 237.439 625.151 235.822 624.537 234.466C623.923 233.102 623.007 232.057 621.787 231.33C620.567 230.595 619.048 230.227 617.23 230.227H612.73V248.5ZM639.957 251.318C638.397 251.318 637.018 251.042 635.821 250.489C634.632 249.928 633.704 249.159 633.037 248.182C632.37 247.197 632.041 246.076 632.048 244.818C632.041 243.833 632.234 242.924 632.628 242.091C633.022 241.25 633.56 240.549 634.241 239.989C634.931 239.42 635.7 239.061 636.548 238.909V238.773C635.435 238.485 634.548 237.86 633.889 236.898C633.23 235.928 632.904 234.826 632.912 233.591C632.904 232.409 633.204 231.352 633.81 230.42C634.416 229.489 635.249 228.754 636.31 228.216C637.378 227.678 638.594 227.409 639.957 227.409C641.306 227.409 642.51 227.678 643.571 228.216C644.632 228.754 645.465 229.489 646.071 230.42C646.685 231.352 646.995 232.409 647.003 233.591C646.995 234.826 646.658 235.928 645.991 236.898C645.332 237.86 644.457 238.485 643.366 238.773V238.909C644.207 239.061 644.965 239.42 645.639 239.989C646.313 240.549 646.851 241.25 647.253 242.091C647.654 242.924 647.859 243.833 647.866 244.818C647.859 246.076 647.518 247.197 646.844 248.182C646.177 249.159 645.249 249.928 644.06 250.489C642.878 251.042 641.51 251.318 639.957 251.318ZM639.957 248.818C641.01 248.818 641.92 248.648 642.685 248.307C643.45 247.966 644.041 247.485 644.457 246.864C644.874 246.242 645.086 245.515 645.094 244.682C645.086 243.803 644.859 243.027 644.412 242.352C643.965 241.678 643.355 241.148 642.582 240.761C641.817 240.375 640.942 240.182 639.957 240.182C638.965 240.182 638.079 240.375 637.298 240.761C636.526 241.148 635.916 241.678 635.469 242.352C635.029 243.027 634.813 243.803 634.821 244.682C634.813 245.515 635.014 246.242 635.423 246.864C635.84 247.485 636.435 247.966 637.207 248.307C637.98 248.648 638.897 248.818 639.957 248.818ZM639.957 237.773C640.791 237.773 641.529 237.606 642.173 237.273C642.825 236.939 643.336 236.473 643.707 235.875C644.079 235.277 644.268 234.576 644.276 233.773C644.268 232.985 644.082 232.299 643.719 231.716C643.355 231.125 642.851 230.67 642.207 230.352C641.563 230.027 640.813 229.864 639.957 229.864C639.086 229.864 638.325 230.027 637.673 230.352C637.022 230.67 636.518 231.125 636.162 231.716C635.806 232.299 635.632 232.985 635.639 233.773C635.632 234.576 635.81 235.277 636.173 235.875C636.545 236.473 637.056 236.939 637.707 237.273C638.359 237.606 639.109 237.773 639.957 237.773Z" fill="#151515"/>
</svg>
